<?xml version="1.0" encoding="utf-8"?>
<!-- Generator: Adobe Illustrator 19.1.0, SVG Export Plug-In . SVG Version: 6.00 Build 0)  -->
<svg version="1.1" id="Layer_1" xmlns:sketch="http://www.bohemiancoding.com/sketch/ns"
	 xmlns="http://www.w3.org/2000/svg" xmlns:xlink="http://www.w3.org/1999/xlink" x="0px" y="0px" viewBox="-1144 104 1170 293"
	 style="enable-background:new -1144 104 1170 293;" xml:space="preserve">
<style type="text/css">
	.st0{fill:#FCFCFC;}
	.st1{clip-path:url(#SVGID_2_);fill:#FFFFFF;}
	.st2{clip-path:url(#SVGID_2_);}
	.st3{clip-path:url(#SVGID_4_);fill:#FFFFFF;}
	.st4{fill:#FFFFFF;}
</style>
<title>logo slice</title>
<description>Created with Sketch.</description>
<g id="Page-1" sketch:type="MSPage">
	<g id="Splash" transform="translate(-140.000000, -166.000000)" sketch:type="MSArtboardGroup">
		<g id="nibs-confections" transform="translate(108.000000, 116.000000)" sketch:type="MSLayerGroup">
			<g id="nibs-logo" transform="translate(32.000000, 42.000000)" sketch:type="MSShapeGroup">
				<path class="st0" d="M-202.5,154.9c-5.1-3.1-10.8-4.4-16.7-4.6c-3.1-0.1-6.2-0.3-9.2-1.1c-1.2-0.3-2.5-0.4-3.7-0.4
					c-2,0-3.7,0.6-4.4,2.8c-0.1,0.2-0.2,0.4-0.3,0.5c-1.3,0.9-1.5,2.2-1.3,3.6c0.3,1.9,1,3.6,2.1,5.1c2,2.7,3.9,5.4,5.5,8.3
					c0.9,1.6,1.7,3.3,2.8,4.8c1.4,1.6,2.4,3.6,3.7,5.3c1.8,2.4,4.4,4,6.8,5.7c2.9,2.1,6.2,2.9,9.7,2.6c2.3-0.2,4.7-0.3,7-0.5
					c3-0.2,5.9-0.5,8.9,0.2c1.1,0.3,2.2,0.1,3.3-0.2c2.1-0.6,2.8-2.1,1.9-4c-0.5-1.1-1.1-2.2-1.5-3.4c-1.4-4.5-2.7-9-4.8-13.2
					C-194.8,161.6-198,157.7-202.5,154.9z M-298,367.3h16.6V247.1c7.4-9.5,17.4-18.2,24.9-18.2c9.4,0,10.3,8.4,10.3,23.1v115.3h16.3
					V248.8c0-27.2-6.9-35.5-20.9-35.5c-12.9,0-24.3,11-30.6,19.6v-17.6H-298V367.3z M-203,365.3h16v-151h-16V365.3z M-89,290.7
					c0-59.1-11.2-77.8-30.3-77.8c-12.3,0-20,10.4-24,18.2v-77.8H-160v213.3h16.6v-16.7c5.2,11.5,12.9,18.4,23.8,18.4
					C-100.5,368.3-89,350.1-89,290.7z M-123.1,353.3c-7.2,0-13.2-6.3-19.9-18.1v-88c3.7-6.9,10.7-17.8,19.6-17.8
					c13.2,0,18.4,17.8,18.4,62.4C-105,337.2-109.9,353.3-123.1,353.3z M-39.1,369.3c21.3,0,32.5-14.4,32.5-34.9
					c0-19.6-12.4-34.3-25.6-49.5c-10.9-12.4-22.5-24.2-22.5-39.8c0-10.7,6-18.1,15.3-18.1c10.1,0,15,8.1,18.7,20.7l14.7-4.3
					c-6.3-20.2-15.8-31.1-33.7-31.1c-17.6,0-31.4,13-31.4,33.1c0,21,13.8,36.3,26.5,51.3C-33.4,309.3-23,320.6-23,335
					c0,12.4-5.2,19.9-16.4,19.9c-11.2,0-19-8.1-23.9-23.3l-14.7,4.3C-70.8,357.7-60.1,369.3-39.1,369.3L-39.1,369.3z"/>
			</g>
		</g>
	</g>
</g>
<g>
	<g>
		<defs>
			<rect id="SVGID_1_" x="-1116.3" y="173.3" width="738.3" height="155.4"/>
		</defs>
		<clipPath id="SVGID_2_">
			<use xlink:href="#SVGID_1_"  style="overflow:visible;"/>
		</clipPath>
		<polygon class="st1" points="-986.4,173.8 -1076.5,173.8 -1115.1,208.6 -986.4,328.2 -857.9,208.5 -896.7,173.8 		"/>
		<polygon class="st1" points="-803.9,173.3 -803.9,189.1 -749.9,189.1 -749.9,328 -728.4,328 -728.4,189.1 -673.3,189.1 
			-673.3,173.3 		"/>
		<g class="st2">
			<defs>
				<rect id="SVGID_3_" x="-1116.3" y="173.3" width="738.3" height="155.4"/>
			</defs>
			<clipPath id="SVGID_4_">
				<use xlink:href="#SVGID_3_"  style="overflow:visible;"/>
			</clipPath>
			<path class="st3" d="M-623.9,173.6h55.4c50.5,0,82.6,23.9,82.6,71.6c0,61.4-38.5,83-81,83h-57V173.6z M-602.4,313.3h36
				c36,0,58.6-22.1,58.6-63.7c0-47.4-27.3-61.2-62.5-61.2h-32.2V313.3z"/>
		</g>
	</g>
</g>
<g>
	<path class="st4" d="M-390.7,249.1h35.2v4h-35.2v36.8h-4V253h-33.8v-4h33.8v-36.9h4V249.1z"/>
</g>
</svg>
